<?xml version="1.0" standalone="no"?>
<!DOCTYPE svg PUBLIC "-//W3C//DTD SVG 20010904//EN"
 "http://www.w3.org/TR/2001/REC-SVG-20010904/DTD/svg10.dtd">
<svg version="1.0" xmlns="http://www.w3.org/2000/svg"
 width="1254.000000pt" height="1254.000000pt" viewBox="0 0 1254.000000 1254.000000"
 preserveAspectRatio="xMidYMid meet">

<g transform="translate(0.000000,1254.000000) scale(0.100000,-0.100000)"
fill="#000000" stroke="none">
<path d="M3110 11284 c-14 -2 -59 -9 -100 -15 -200 -28 -446 -114 -632 -220
-469 -269 -790 -713 -910 -1259 l-23 -105 0 -3370 0 -3370 23 -105 c110 -501
385 -910 797 -1185 275 -184 570 -284 902 -305 201 -12 6034 -12 6217 1 165
11 303 37 446 85 686 228 1190 854 1260 1564 8 83 10 1020 8 3390 l-4 3275
-22 114 c-103 529 -430 987 -903 1264 -175 103 -376 179 -579 219 l-115 23
-3170 1 c-1743 1 -3181 0 -3195 -2z m2976 -1928 c716 -108 1321 -490 1722
-1090 86 -129 214 -385 271 -542 211 -585 210 -1218 -3 -1807 -235 -646 -684
-1163 -1265 -1456 -342 -172 -643 -249 -1021 -258 -292 -8 -504 20 -771 101
l-114 34 -115 -65 c-294 -169 -620 -291 -973 -364 -84 -17 -188 -33 -232 -36
-72 -5 -83 -3 -115 19 -54 37 -80 83 -80 140 0 40 14 80 71 206 142 312 262
628 310 814 l19 78 -54 73 c-279 377 -467 827 -532 1272 -22 150 -25 502 -5
655 74 577 335 1114 736 1515 248 248 576 457 908 579 180 66 465 131 657 150
94 9 488 -3 586 -18z m2329 -1518 c145 -109 340 -304 451 -453 241 -323 384
-655 460 -1075 23 -122 26 -610 6 -735 -79 -481 -260 -904 -545 -1277 -39 -51
-67 -98 -67 -111 0 -58 123 -316 250 -527 34 -56 64 -117 67 -134 7 -45 -18
-90 -64 -111 -35 -17 -50 -18 -208 -7 -285 20 -507 70 -738 165 l-107 45 -88
-34 c-176 -69 -405 -127 -622 -156 -159 -21 -557 -16 -725 10 -354 55 -671
167 -963 341 -108 64 -316 210 -282 198 324 -117 603 -168 930 -170 254 -1
384 14 620 73 340 85 683 256 960 478 425 341 760 866 900 1409 113 435 115
863 6 1303 -59 234 -180 534 -292 723 -20 34 -46 77 -56 95 -11 17 -16 32 -11
32 5 0 58 -37 118 -82z"/>
<path d="M4476 6854 c-65 -20 -146 -101 -169 -168 -63 -184 65 -368 256 -369
165 -1 288 132 275 297 -7 78 -34 132 -94 185 -76 66 -168 85 -268 55z"/>
<path d="M5662 6852 c-73 -26 -122 -69 -157 -136 -24 -48 -29 -70 -29 -124 2
-238 278 -363 453 -206 116 105 128 272 27 391 -63 75 -197 109 -294 75z"/>
<path d="M6840 6851 c-67 -24 -149 -106 -168 -168 -56 -187 72 -366 262 -365
179 0 312 174 262 345 -45 156 -207 241 -356 188z"/>
</g>
</svg>
